<?xml version="1.0" encoding="UTF-8" standalone="no"?>
<svg
   xmlns:dc="http://purl.org/dc/elements/1.1/"
   xmlns:cc="http://creativecommons.org/ns#"
   xmlns:rdf="http://www.w3.org/1999/02/22-rdf-syntax-ns#"
   xmlns:svg="http://www.w3.org/2000/svg"
   xmlns="http://www.w3.org/2000/svg"
   xmlns:sodipodi="http://sodipodi.sourceforge.net/DTD/sodipodi-0.dtd"
   xmlns:inkscape="http://www.inkscape.org/namespaces/inkscape"
   height="110"
   version="1.1"
   width="800"
   id="svg3090"
   inkscape:version="0.48.2 r9819"
   sodipodi:docname="RegularizedLinearRegression-scaled.svg">
  <metadata
     id="metadata3193">
    <rdf:RDF>
      <cc:Work
         rdf:about="">
        <dc:format>image/svg+xml</dc:format>
        <dc:type
           rdf:resource="http://purl.org/dc/dcmitype/StillImage" />
        <dc:title />
      </cc:Work>
    </rdf:RDF>
  </metadata>
  <defs
     id="defs3191" />
  <sodipodi:namedview
     pagecolor="#ffffff"
     bordercolor="#666666"
     borderopacity="1"
     objecttolerance="10"
     gridtolerance="10"
     guidetolerance="10"
     inkscape:pageopacity="0"
     inkscape:pageshadow="2"
     inkscape:window-width="1862"
     inkscape:window-height="986"
     id="namedview3189"
     showgrid="false"
     inkscape:zoom="0.834386"
     inkscape:cx="165.29129"
     inkscape:cy="260.31667"
     inkscape:window-x="-8"
     inkscape:window-y="-8"
     inkscape:window-maximized="1"
     inkscape:current-layer="svg3090" />
  <g
     fill-rule="even-odd"
     font-size-adjust="none"
     font-stretch="normal"
     font-style="normal"
     font-variant="normal"
     font-weight="normal"
     id="content"
     letter-spacing="normal"
     stroke-miterlimit="10.433"
     transform="matrix(3.2222446,0,0,-3.2222446,-585.62655,2105.4655)"
     word-spacing="normal"
     xml:space="preserve"
     style="font-style:normal;font-variant:normal;font-weight:normal;font-stretch:normal;letter-spacing:normal;word-spacing:normal;text-anchor:start;fill:none;stroke:#000000;stroke-linecap:butt;stroke-linejoin:miter;stroke-miterlimit:10.43299961;stroke-opacity:1;stroke-dasharray:none;stroke-dashoffset:0">

<path
   d="m 200.38,641.34 0.01,0.03 0.01,0.03 0.01,0.03 0.01,0.03 0.01,0.03 0,0.03 0.01,0.02 0.01,0.03 0.01,0.02 0.01,0.02 0.01,0.02 0.01,0.02 0.02,0.02 0.01,0.01 0.02,0.02 0.01,0.01 0.02,0.02 0.02,0.01 0.02,0.01 0.02,0.01 0.03,0.01 0.03,0.01 0.02,0.01 0.04,0.01 0.01,0 0.02,0 0.02,0 0.02,0.01 0.01,0 0.02,0 0.02,0 0.03,0 0.02,0.01 0.02,0 0.02,0 0.03,0 0.02,0 0.03,0 0.02,0 0.03,0 c 0.19,0 0.31,0 0.31,0.21 0,0.13 -0.11,0.13 -0.15,0.13 -0.21,0 -0.44,-0.02 -0.65,-0.02 h -0.66 c -0.5,0 -1.03,0.02 -1.53,0.02 -0.11,0 -0.25,0 -0.25,-0.21 0,-0.12 0.1,-0.12 0.1,-0.13 h 0.29 c 0.96,0 0.96,-0.1 0.96,-0.28 0,-0.01 0,-0.09 -0.05,-0.28 l -1.37,-5.47 c -0.31,-1.22 -1.11,-1.8 -1.69,-1.8 -0.4,0 -0.98,0.19 -1.12,0.82 0.05,-0.01 0.11,-0.02 0.15,-0.02 0.4,0 0.71,0.35 0.71,0.69 0,0.19 -0.12,0.45 -0.48,0.45 -0.21,0 -0.71,-0.13 -0.71,-0.9 0,-0.76 0.62,-1.28 1.48,-1.28 1.09,0 2.26,0.82 2.54,1.96 z"
   id="path3093"
   inkscape:connector-curvature="0"
   style="fill:#000000;stroke-width:0" />

<path
   d="m 204.89,631.09 0,0.01 0,0.01 0,0 0,0 -0.01,0.01 0,0 0,0.01 0,0 0,0 0,0.01 -0.01,0.01 0,0 0,0.01 -0.01,0 0,0.01 -0.01,0.01 -0.01,0.01 0,0.01 -0.01,0 0,0 0,0.01 -0.01,0 0,0.01 -0.01,0.01 0,0 -0.01,0.01 0,0 -0.01,0.01 -0.01,0.01 0,0 -0.01,0.01 0,0.01 -0.01,0 -0.01,0.01 -0.01,0.01 0,0.01 -0.01,0 -0.01,0.01 -0.01,0.01 -0.01,0.01 -0.01,0.01 -0.01,0.01 c -1.19,1.21 -1.86,3.18 -1.86,5.62 0,2.32 0.56,4.31 1.95,5.72 0.12,0.11 0.12,0.14 0.12,0.17 0,0.07 -0.07,0.1 -0.11,0.1 -0.16,0 -1.14,-0.87 -1.73,-2.04 -0.6,-1.2 -0.88,-2.48 -0.88,-3.95 0,-1.07 0.17,-2.49 0.79,-3.77 0.7,-1.43 1.69,-2.21 1.82,-2.21 0.04,0 0.11,0.02 0.11,0.09 z"
   id="path3095"
   inkscape:connector-curvature="0"
   style="fill:#000000;stroke-width:0" />

<path
   d="m 211.3,640.01 0,0.12 -0.01,0.11 0,0.11 -0.01,0.12 -0.01,0.11 -0.01,0.11 -0.02,0.11 -0.02,0.1 -0.02,0.11 -0.02,0.1 -0.03,0.1 -0.03,0.1 -0.03,0.1 -0.03,0.09 -0.04,0.09 -0.04,0.08 -0.04,0.09 -0.04,0.07 -0.05,0.08 -0.05,0.07 -0.06,0.06 -0.06,0.07 -0.06,0.05 -0.06,0.05 -0.07,0.05 -0.07,0.04 -0.07,0.04 -0.08,0.02 -0.08,0.03 -0.08,0.01 -0.09,0.01 -0.09,0.01 -0.01,-0.24 c 0.4,0 0.66,-0.34 0.66,-1.48 0,-0.43 -0.04,-1.03 -0.38,-2.37 h -2.53 c 0.18,0.7 0.43,1.71 0.91,2.56 0.4,0.71 0.82,1.29 1.34,1.29 l 0.01,0.24 c -1.67,0 -3.45,-3.51 -3.45,-6.14 0,-0.55 0.12,-2.4 1.37,-2.4 l 0.01,0.24 c -0.36,0 -0.66,0.29 -0.66,1.47 0,0.78 0.19,1.59 0.38,2.38 h 2.53 c -0.3,-1.17 -0.55,-1.93 -0.98,-2.68 -0.34,-0.61 -0.76,-1.17 -1.27,-1.17 l -0.01,-0.24 c 1.63,0 3.45,3.42 3.45,6.13 z"
   id="path3097"
   inkscape:connector-curvature="0"
   style="fill:#000000;stroke-width:0" />

<path
   d="m 215.37,636.98 0,0.08 0,0.09 0,0.1 -0.01,0.09 0,0.1 0,0.1 -0.02,0.22 -0.02,0.22 -0.02,0.23 -0.03,0.23 -0.04,0.25 -0.05,0.25 -0.05,0.25 -0.07,0.26 -0.07,0.26 -0.09,0.26 -0.09,0.26 -0.05,0.13 -0.06,0.13 -0.06,0.13 -0.06,0.13 c -0.7,1.44 -1.68,2.22 -1.81,2.22 -0.05,0 -0.11,-0.03 -0.11,-0.1 0,-0.03 0,-0.06 0.2,-0.26 1.19,-1.21 1.87,-3.18 1.87,-5.62 0,-2.32 -0.57,-4.32 -1.95,-5.73 -0.12,-0.1 -0.12,-0.13 -0.12,-0.17 0,-0.07 0.06,-0.09 0.11,-0.09 0.15,0 1.13,0.86 1.72,2.03 0.61,1.22 0.88,2.51 0.88,3.95 z"
   id="path3099"
   inkscape:connector-curvature="0"
   style="fill:#000000;stroke-width:0" />

<path
   d="m 228.07,637.88 0.03,0 0.03,0 0.04,0 0.01,0 0.02,0 0.02,0 0.01,0 0.02,0 0.02,0.01 0.01,0 0.02,0 0.01,0.01 0.01,0 0.02,0.01 0.01,0 0.01,0.01 0.02,0.01 0.01,0.01 0.01,0 0.01,0.01 0.01,0.02 0,0 0,0.01 0.01,0 0,0.01 0.01,0.01 0,0 0,0.01 0,0.01 0.01,0.01 0,0.01 0,0 0,0.01 0,0.01 0,0.01 0,0.01 0,0.01 c 0,0.23 -0.2,0.23 -0.38,0.23 h -7.04 c -0.17,0 -0.38,0 -0.38,-0.22 0,-0.22 0.2,-0.22 0.38,-0.22 z"
   id="path3101"
   inkscape:connector-curvature="0"
   style="fill:#000000;stroke-width:0" />

<path
   d="m 228.07,635.65 0.03,0 0.03,0 0.04,0 0.01,0 0.02,0 0.02,0 0.01,0 0.02,0.01 0.02,0 0.01,0 0.02,0.01 0.01,0 0.01,0 0.02,0.01 0.01,0.01 0.01,0 0.02,0.01 0.01,0.01 0.01,0.01 0.01,0.01 0.01,0.01 0,0 0,0.01 0.01,0.01 0,0 0.01,0.01 0,0.01 0,0 0,0.01 0.01,0.01 0,0.01 0,0.01 0,0.01 0,0 0,0.01 0,0.01 0,0.01 c 0,0.23 -0.2,0.23 -0.38,0.23 h -7.04 c -0.17,0 -0.38,0 -0.38,-0.21 0,-0.23 0.2,-0.23 0.38,-0.23 z"
   id="path3103"
   inkscape:connector-curvature="0"
   style="fill:#000000;stroke-width:0" />

<path
   d="m 241.44,649.66 0,0.02 0,0.01 0,0.01 0,0.01 0,0.01 0,0.01 0,0.01 0,0.01 0,0.01 0,0.01 0,0.01 0,0.01 0,0.01 0,0.01 0,0.01 0,0 0,0.01 0,0.01 -0.01,0.01 0,0 0,0.01 0,0 0,0.01 0,0 0,0.01 0,0 -0.01,0.01 0,0.01 -0.01,0.01 0,0.01 -0.01,0 -0.01,0.01 -0.01,0 -0.01,0 -0.01,0.01 -0.01,0 0,0 -0.01,0 -0.01,0 0,0 -0.01,0.01 -0.01,0 0,0 -0.01,0 -0.01,0 -0.01,0 -0.01,0 -0.01,0 -0.01,0 -0.01,0 -0.01,0 -0.01,0 -0.01,0 -0.01,0 c -0.28,-0.32 -0.88,-0.77 -2.11,-0.77 v -0.34 c 0.27,0 0.87,0 1.53,0.31 v -6.23 c 0,-0.43 -0.04,-0.57 -1.09,-0.57 h -0.37 V 642 c 0.32,0.02 1.48,0.02 1.88,0.02 0.39,0 1.54,0 1.86,-0.02 v 0.35 h -0.37 c -1.05,0 -1.09,0.14 -1.09,0.57 z"
   id="path3105"
   inkscape:connector-curvature="0"
   style="fill:#000000;stroke-width:0" />

<polyline
   points="233,636 249.1,636 249.1,636.48 233,636.48 "
   id="polyline3107"
   style="fill:#000000;fill-rule:nonzero;stroke-width:0" />

<path
   d="M 238.26,627.01 H 238 c -0.04,-0.21 -0.13,-0.86 -0.25,-1.05 -0.09,-0.11 -0.77,-0.11 -1.13,-0.11 h -2.21 c 0.32,0.27 1.05,1.04 1.36,1.33 1.82,1.67 2.49,2.29 2.49,3.48 0,1.37 -1.09,2.29 -2.47,2.29 -1.39,0 -2.2,-1.18 -2.2,-2.21 0,-0.61 0.52,-0.61 0.56,-0.61 0.25,0 0.56,0.18 0.56,0.56 0,0.34 -0.23,0.56 -0.56,0.56 -0.11,0 -0.13,0 -0.17,-0.01 0.23,0.81 0.87,1.36 1.65,1.36 1.02,0 1.64,-0.85 1.64,-1.94 0,-1.02 -0.59,-1.91 -1.27,-2.67 l -2.41,-2.71 V 625 h 4.36 z"
   id="path3109"
   inkscape:connector-curvature="0"
   style="fill:#000000;stroke-width:0" />

<path
   d="m 241.46,628.5 0,0.01 0.01,0.01 0.01,0.02 0,0.01 0.01,0.02 0.01,0.02 0.02,0.03 0.01,0.02 0.02,0.03 0.01,0.03 0.02,0.03 0.02,0.04 0.02,0.03 0.02,0.04 0.02,0.03 0.03,0.04 0.02,0.04 0.03,0.04 0.03,0.04 0.03,0.04 0.03,0.04 0.03,0.05 0.03,0.04 0.03,0.04 0.04,0.04 0.03,0.04 0.04,0.04 0.04,0.04 0.04,0.04 0.04,0.04 0.04,0.04 0.04,0.03 c 0.31,0.29 0.72,0.48 1.18,0.48 0.48,0 0.65,-0.35 0.65,-0.83 0,-0.08 0,-0.31 -0.15,-0.88 -0.15,-0.62 -0.15,-0.66 -0.3,-1.23 -0.09,-0.36 -0.32,-1.24 -0.34,-1.37 -0.05,-0.18 -0.12,-0.49 -0.12,-0.54 0,-0.17 0.13,-0.3 0.31,-0.3 0.36,0 0.42,0.28 0.52,0.71 0.23,0.89 0.54,2.13 0.72,2.85 0.03,0.1 0.65,1.59 1.96,1.59 0.48,0 0.65,-0.35 0.65,-0.83 0,-0.67 -0.47,-1.98 -0.73,-2.69 -0.11,-0.29 -0.17,-0.45 -0.17,-0.66 0,-0.54 0.37,-0.97 0.94,-0.97 1.12,0 1.54,1.76 1.54,1.83 0,0.06 -0.05,0.11 -0.12,0.11 -0.11,0 -0.12,-0.04 -0.18,-0.24 -0.28,-0.96 -0.72,-1.46 -1.2,-1.46 -0.12,0 -0.31,0.01 -0.31,0.4 0,0.3 0.15,0.69 0.19,0.82 0.22,0.57 0.76,1.98 0.76,2.68 0,0.71 -0.42,1.25 -1.33,1.25 -0.8,0 -1.45,-0.45 -1.93,-1.16 -0.03,0.65 -0.43,1.16 -1.32,1.16 -1.07,0 -1.63,-0.75 -1.85,-1.05 -0.03,0.68 -0.52,1.05 -1.05,1.05 -0.34,0 -0.62,-0.17 -0.84,-0.62 -0.22,-0.43 -0.39,-1.16 -0.39,-1.21 0,-0.04 0.05,-0.1 0.13,-0.1 0.1,0 0.11,0.01 0.18,0.28 0.18,0.71 0.41,1.41 0.89,1.41 0.27,0 0.37,-0.19 0.37,-0.55 0,-0.26 -0.12,-0.73 -0.2,-1.1 -0.11,-0.43 -0.23,-0.86 -0.34,-1.29 -0.05,-0.23 -0.18,-0.76 -0.24,-0.98 -0.08,-0.31 -0.21,-0.87 -0.21,-0.93 0,-0.17 0.13,-0.3 0.31,-0.3 0.14,0 0.31,0.07 0.4,0.25 0.03,0.06 0.14,0.48 0.19,0.72 0.09,0.36 0.18,0.72 0.27,1.08 z"
   id="path3111"
   inkscape:connector-curvature="0"
   style="fill:#000000;stroke-width:0" />

<path
   d="m 256.12,636.74 0.32,-0.24 0.33,-0.23 0.32,-0.24 0.17,-0.12 0.16,-0.12 c 0.15,-0.1 0.36,-0.26 0.45,-0.26 0.15,0 0.32,0.14 0.32,0.33 0,0.1 -0.05,0.22 -0.22,0.3 l -1.73,0.82 1.7,0.81 c 0.11,0.05 0.25,0.12 0.25,0.31 0,0.19 -0.17,0.33 -0.32,0.33 -0.05,0 -0.11,-0.01 -0.25,-0.1 l -1.5,-1.11 0.17,1.91 c 0.01,0.15 0,0.43 -0.3,0.43 -0.19,0 -0.35,-0.16 -0.31,-0.31 v -0.13 l 0.16,-1.9 -1.5,1.1 c -0.16,0.1 -0.16,0.11 -0.24,0.11 -0.15,0 -0.32,-0.14 -0.32,-0.33 0,-0.19 0.14,-0.26 0.25,-0.31 l 1.68,-0.8 -1.68,-0.81 c -0.11,-0.05 -0.25,-0.13 -0.25,-0.32 0,-0.19 0.17,-0.33 0.32,-0.33 0.05,0 0.11,0.01 0.24,0.11 l 1.5,1.11 -0.16,-1.96 v -0.06 c -0.04,-0.18 0.13,-0.32 0.3,-0.32 0.32,0 0.32,0.27 0.31,0.44 z"
   id="path3113"
   inkscape:connector-curvature="0"
   style="fill:#000000;stroke-width:0" />

<polygon
   points="264.99,631.01 264.99,631.45 263.83,631.45 263.83,642.52 264.99,642.52 264.99,642.97 263.39,642.97 263.39,631.01 "
   id="polygon3115"
   style="fill:#000000;stroke-width:0" />

<path
   d="m 271.59,650.31 0.01,0.01 0,0.01 0,0.02 0.01,0.01 0,0.02 0,0.01 0.01,0.02 0,0.02 0,0.01 0.01,0.02 0,0.02 0.01,0.02 0.01,0.04 0.01,0.04 0.01,0.04 0.01,0.04 0,0.02 0.01,0.01 0,0.02 0.01,0.02 0,0.02 0,0.01 0.01,0.02 0,0.02 0,0.01 0.01,0.01 0,0.02 0,0.01 c 0.03,0.08 0.07,0.27 0.09,0.35 0.01,0.04 0.28,0.56 0.63,0.82 0.27,0.21 0.53,0.27 0.76,0.27 0.29,0 0.45,-0.17 0.45,-0.54 0,-0.19 -0.05,-0.37 -0.13,-0.73 -0.06,-0.21 -0.2,-0.75 -0.24,-0.96 l -0.12,-0.48 c -0.04,-0.13 -0.1,-0.37 -0.1,-0.41 0,-0.19 0.15,-0.25 0.26,-0.25 0.14,0 0.26,0.1 0.31,0.19 0.03,0.05 0.09,0.32 0.13,0.49 l 0.19,0.71 c 0.02,0.12 0.1,0.42 0.12,0.54 0.11,0.43 0.11,0.44 0.3,0.7 0.26,0.39 0.63,0.74 1.17,0.74 0.28,0 0.45,-0.17 0.45,-0.54 0,-0.44 -0.33,-1.35 -0.48,-1.74 -0.08,-0.21 -0.11,-0.26 -0.11,-0.41 0,-0.45 0.38,-0.68 0.72,-0.68 0.78,0 1.11,1.11 1.11,1.22 0,0.08 -0.07,0.1 -0.12,0.1 -0.09,0 -0.11,-0.05 -0.14,-0.13 -0.19,-0.66 -0.52,-0.96 -0.83,-0.96 -0.12,0 -0.19,0.07 -0.19,0.26 0,0.18 0.07,0.36 0.15,0.56 0.11,0.3 0.47,1.21 0.47,1.66 0,0.6 -0.42,0.89 -0.99,0.89 -0.55,0 -1.01,-0.29 -1.37,-0.79 -0.06,0.64 -0.57,0.79 -0.98,0.79 -0.37,0 -0.85,-0.13 -1.29,-0.71 -0.06,0.48 -0.44,0.71 -0.82,0.71 -0.28,0 -0.48,-0.17 -0.61,-0.44 -0.19,-0.38 -0.27,-0.77 -0.27,-0.78 0,-0.08 0.05,-0.11 0.12,-0.11 0.1,0 0.11,0.03 0.17,0.24 0.09,0.39 0.24,0.86 0.57,0.86 0.21,0 0.26,-0.2 0.26,-0.37 0,-0.15 -0.04,-0.3 -0.11,-0.56 -0.02,-0.06 -0.13,-0.54 -0.17,-0.64 -0.12,-0.53 -0.18,-0.74 -0.29,-1.2 -0.03,-0.12 -0.08,-0.32 -0.08,-0.35 0,-0.19 0.15,-0.25 0.25,-0.25 0.15,0 0.27,0.1 0.32,0.19 0.03,0.05 0.09,0.32 0.13,0.49 z"
   id="path3117"
   inkscape:connector-curvature="0"
   style="fill:#000000;stroke-width:0" />

<path
   d="m 280.14,628.26 1.44,3.83 h -0.3 c -0.46,-1.25 -1.73,-2.06 -3.1,-2.42 -0.26,-0.06 -1.43,-0.37 -3.72,-0.37 h -7.21 l 6.08,7.14 c 0.09,0.09 0.11,0.13 0.11,0.19 0,0.03 0,0.06 -0.08,0.18 l -5.57,7.62 h 6.55 c 1.6,0 2.69,-0.17 2.79,-0.2 0.65,-0.09 1.69,-0.29 2.64,-0.89 0.29,-0.19 1.11,-0.73 1.51,-1.7 h 0.3 L 280.14,645 H 266 c -0.27,0 -0.28,-0.01 -0.32,-0.08 -0.01,-0.04 -0.01,-0.27 -0.01,-0.4 l 6.32,-8.65 -6.19,-7.26 c -0.12,-0.14 -0.12,-0.2 -0.12,-0.21 0,-0.14 0.11,-0.14 0.32,-0.14 z"
   id="path3119"
   inkscape:connector-curvature="0"
   style="fill:#000000;stroke-width:0" />

<path
   d="m 269.38,624.97 -0.01,0.02 0,0.02 0,0.01 0,0.02 0,0.01 -0.01,0.02 0,0.01 -0.01,0.01 0,0.02 -0.01,0.01 -0.01,0.01 -0.01,0.02 0,0.01 -0.01,0.01 -0.01,0.01 -0.01,0.01 -0.01,0.01 -0.01,0.01 -0.02,0.01 -0.01,0.01 -0.01,0 -0.01,0.01 -0.02,0.01 -0.01,0 -0.02,0.01 -0.01,0 -0.02,0.01 -0.01,0 -0.02,0 -0.01,0.01 -0.02,0 -0.02,0 c -0.2,0 -0.44,-0.19 -0.44,-0.43 0,-0.18 0.13,-0.31 0.32,-0.31 0.2,0 0.44,0.19 0.44,0.43 z"
   id="path3121"
   inkscape:connector-curvature="0"
   style="fill:#000000;stroke-width:0" />

<path
   d="m 268.21,622.05 -0.02,-0.05 -0.02,-0.05 -0.01,-0.04 -0.02,-0.04 -0.02,-0.04 -0.01,-0.03 -0.01,-0.03 -0.02,-0.04 -0.01,-0.03 -0.01,-0.03 -0.01,-0.03 -0.01,-0.02 -0.02,-0.06 -0.02,-0.05 -0.02,-0.05 -0.01,-0.03 -0.02,-0.03 -0.01,-0.02 -0.01,-0.03 -0.01,-0.04 -0.01,-0.03 -0.01,-0.03 -0.02,-0.04 -0.01,-0.03 -0.02,-0.04 -0.01,-0.05 -0.02,-0.04 -0.02,-0.05 -0.02,-0.05 c -0.04,-0.12 -0.08,-0.22 -0.08,-0.35 0,-0.39 0.3,-0.68 0.73,-0.68 0.77,0 1.1,1.11 1.1,1.22 0,0.08 -0.07,0.1 -0.12,0.1 -0.1,0 -0.11,-0.05 -0.14,-0.13 -0.18,-0.64 -0.51,-0.96 -0.83,-0.96 -0.09,0 -0.19,0.03 -0.19,0.25 0,0.19 0.06,0.33 0.16,0.58 0.08,0.22 0.16,0.43 0.25,0.64 0.08,0.22 0.16,0.43 0.25,0.65 0.07,0.18 0.16,0.43 0.16,0.57 0,0.39 -0.32,0.68 -0.72,0.68 -0.78,0 -1.11,-1.12 -1.11,-1.22 0,-0.08 0.05,-0.11 0.12,-0.11 0.1,0 0.11,0.05 0.14,0.13 0.22,0.76 0.58,0.97 0.82,0.97 0.11,0 0.2,-0.04 0.2,-0.26 0,-0.08 -0.01,-0.19 -0.09,-0.43 z"
   id="path3123"
   inkscape:connector-curvature="0"
   style="fill:#000000;stroke-width:0" />

<path
   d="m 275.82,622.65 0.03,0 0.02,0 0.02,0 0.02,0 0.01,0 0.01,0.01 0.01,0 0.01,0 0.02,0 0.01,0 0.01,0.01 0.01,0 0.01,0 0.01,0.01 0.01,0 0.01,0.01 0.01,0.01 0.01,0 0,0.01 0.01,0.01 0,0 0.01,0.01 0,0 0,0.01 0.01,0.01 0,0 0,0.01 0,0 0.01,0.01 0,0.01 0,0 0,0.01 0,0.01 0,0 0,0.01 0,0.01 0,0.01 0.01,0.01 c 0,0.18 -0.2,0.18 -0.32,0.18 h -5.01 c -0.12,0 -0.31,0 -0.31,-0.18 0,-0.19 0.16,-0.19 0.28,-0.19 z"
   id="path3125"
   inkscape:connector-curvature="0"
   style="fill:#000000;stroke-width:0" />

<path
   d="m 275.79,620.97 0.01,0 0.02,0 0.01,0 0.01,0 0.03,0 0.02,0 0.02,0 0.01,0 0.01,0 0.01,0 0.02,0.01 0.01,0 0.01,0 0.01,0.01 0.02,0 0.01,0.01 0.01,0 0.01,0.01 0.01,0.01 0.01,0 0.01,0.01 0,0.01 0,0 0.01,0.01 0,0 0,0.01 0.01,0 0,0.01 0,0 0,0.01 0.01,0.01 0,0 0,0.01 0,0.01 0,0.01 0,0 0,0.01 0,0.01 0.01,0.01 c 0,0.18 -0.16,0.18 -0.29,0.18 h -5.07 c -0.12,0 -0.28,0 -0.28,-0.18 0,-0.18 0.19,-0.18 0.31,-0.18 z"
   id="path3127"
   inkscape:connector-curvature="0"
   style="fill:#000000;stroke-width:0" />

<path
   d="m 278.5,625.08 0,0.01 0,0.01 0,0.01 0,0.01 0,0 0,0.01 0,0.01 0,0.01 0,0.01 0,0 0,0.01 0,0.01 0,0.01 0,0 0,0.01 0,0 0,0.01 0,0 -0.01,0.01 0,0.01 0,0 0,0.01 -0.01,0.01 0,0.01 -0.01,0 0,0.01 -0.01,0.01 0,0 -0.01,0 -0.01,0.01 -0.01,0 -0.01,0 -0.01,0 -0.01,0.01 -0.01,0 0,0 -0.01,0 -0.01,0 0,0 -0.01,0 -0.01,0 -0.01,0 0,0 -0.01,0 -0.01,0 -0.01,0 -0.01,0 -0.01,0 -0.01,0 -0.01,0 c -0.32,-0.32 -0.75,-0.51 -1.5,-0.51 v -0.26 c 0.21,0 0.64,0 1.1,0.21 v -4.09 c 0,-0.29 -0.02,-0.39 -0.78,-0.39 h -0.28 V 620 c 0.33,0.02 1.01,0.02 1.37,0.02 0.36,0 1.05,0 1.38,-0.02 v 0.26 h -0.27 c -0.76,0 -0.79,0.1 -0.79,0.39 z"
   id="path3129"
   inkscape:connector-curvature="0"
   style="fill:#000000;stroke-width:0" />

<path
   d="m 285.89,631.09 0,0.01 0,0.01 0,0 0,0 -0.01,0.01 0,0 0,0.01 0,0 0,0 0,0.01 -0.01,0.01 0,0 0,0.01 -0.01,0 0,0.01 -0.01,0.01 -0.01,0.01 0,0.01 -0.01,0 0,0 0,0.01 -0.01,0 0,0.01 -0.01,0.01 0,0 -0.01,0.01 0,0 -0.01,0.01 -0.01,0.01 0,0 -0.01,0.01 0,0.01 -0.01,0 -0.01,0.01 -0.01,0.01 0,0.01 -0.01,0 -0.01,0.01 -0.01,0.01 -0.01,0.01 -0.01,0.01 -0.01,0.01 c -1.19,1.21 -1.86,3.18 -1.86,5.62 0,2.32 0.56,4.31 1.95,5.72 0.12,0.11 0.12,0.14 0.12,0.17 0,0.07 -0.07,0.1 -0.11,0.1 -0.16,0 -1.14,-0.87 -1.73,-2.04 -0.6,-1.2 -0.88,-2.48 -0.88,-3.95 0,-1.07 0.17,-2.49 0.79,-3.77 0.7,-1.43 1.68,-2.21 1.82,-2.21 0.04,0 0.11,0.02 0.11,0.09 z"
   id="path3131"
   inkscape:connector-curvature="0"
   style="fill:#000000;stroke-width:0" />

<path
   d="m 290.36,642 0,0.01 0,0.01 0.01,0.01 0,0.01 0,0.01 0.01,0.01 0,0.01 0,0.01 0,0.01 0.01,0.02 0,0.01 0,0.01 0,0.01 0,0.01 0,0.01 0,0 0,0.01 0,0.01 c 0,0.12 -0.11,0.12 -0.14,0.12 -0.01,0 -0.6,-0.05 -0.66,-0.06 -0.2,-0.01 -0.38,-0.04 -0.59,-0.05 -0.3,-0.03 -0.39,-0.04 -0.39,-0.25 0,-0.12 0.1,-0.12 0.27,-0.12 0.58,0 0.6,-0.11 0.6,-0.23 0,-0.07 -0.03,-0.16 -0.04,-0.2 l -1.73,-6.92 c -0.05,-0.19 -0.05,-0.21 -0.05,-0.28 0,-0.26 0.2,-0.31 0.32,-0.31 0.2,0 0.36,0.15 0.42,0.29 l 0.54,2.16 c 0.06,0.26 0.13,0.51 0.19,0.78 0.13,0.5 0.13,0.51 0.36,0.86 0.22,0.35 0.76,1.06 1.68,1.06 0.48,0 0.65,-0.35 0.65,-0.83 0,-0.67 -0.47,-1.98 -0.73,-2.69 -0.11,-0.29 -0.17,-0.45 -0.17,-0.66 0,-0.54 0.37,-0.97 0.95,-0.97 1.11,0 1.52,1.76 1.52,1.83 0,0.06 -0.04,0.11 -0.11,0.11 -0.11,0 -0.12,-0.04 -0.18,-0.24 -0.28,-0.96 -0.72,-1.46 -1.2,-1.46 -0.12,0 -0.31,0.01 -0.31,0.4 0,0.3 0.14,0.69 0.19,0.82 0.22,0.57 0.76,1.98 0.76,2.68 0,0.71 -0.42,1.25 -1.33,1.25 -0.68,0 -1.28,-0.32 -1.77,-0.94 z"
   id="path3133"
   inkscape:connector-curvature="0"
   style="fill:#000000;stroke-width:0" />

<path
   d="m 297.82,635.91 -0.01,0.1 0,0.09 0,0.09 -0.01,0.08 -0.01,0.09 -0.01,0.08 -0.02,0.08 -0.01,0.08 -0.02,0.07 -0.02,0.08 -0.03,0.07 -0.02,0.07 -0.03,0.06 -0.02,0.07 -0.04,0.06 -0.03,0.05 -0.03,0.06 -0.04,0.05 -0.04,0.05 -0.04,0.05 -0.04,0.04 -0.04,0.04 -0.05,0.03 -0.05,0.03 -0.04,0.03 -0.06,0.03 -0.05,0.02 -0.05,0.02 -0.06,0.01 -0.06,0.01 -0.06,0.01 -0.06,0 0,-0.22 c 0.47,0 0.47,-0.86 0.47,-1.01 0,-0.44 -0.14,-1.09 -0.24,-1.48 h -1.76 c 0.38,1.61 1.03,2.49 1.53,2.49 l 0,0.22 c -1.18,0 -2.42,-2.21 -2.42,-3.99 0,-0.77 0.26,-1.7 1.05,-1.7 l 0.01,0.23 c -0.43,0 -0.48,0.63 -0.48,1 0,0.5 0.15,1.15 0.24,1.48 h 1.76 c -0.37,-1.6 -1.02,-2.48 -1.52,-2.48 l -0.01,-0.23 c 1.17,0 2.42,2.16 2.42,3.99 z"
   id="path3135"
   inkscape:connector-curvature="0"
   style="fill:#000000;stroke-width:0" />

<path
   d="m 301.89,631.09 0,0.01 0,0.01 0,0 0,0 -0.01,0.01 0,0 0,0.01 0,0 0,0 0,0.01 -0.01,0.01 0,0 0,0.01 -0.01,0 0,0.01 -0.01,0.01 -0.01,0.01 0,0.01 -0.01,0 0,0 0,0.01 -0.01,0 0,0.01 -0.01,0.01 0,0 -0.01,0.01 0,0 -0.01,0.01 -0.01,0.01 0,0 -0.01,0.01 0,0.01 -0.01,0 -0.01,0.01 -0.01,0.01 0,0.01 -0.01,0 -0.01,0.01 -0.01,0.01 -0.01,0.01 -0.01,0.01 -0.01,0.01 c -1.19,1.21 -1.86,3.18 -1.86,5.62 0,2.32 0.56,4.31 1.95,5.72 0.12,0.11 0.12,0.14 0.12,0.17 0,0.07 -0.07,0.1 -0.11,0.1 -0.16,0 -1.14,-0.87 -1.73,-2.04 -0.6,-1.2 -0.88,-2.48 -0.88,-3.95 0,-1.07 0.17,-2.49 0.79,-3.77 0.7,-1.43 1.68,-2.21 1.82,-2.21 0.04,0 0.11,0.02 0.11,0.09 z"
   id="path3137"
   inkscape:connector-curvature="0"
   style="fill:#000000;stroke-width:0" />

<path
   d="m 308.67,638.88 -0.04,-0.01 -0.03,-0.01 -0.03,-0.01 -0.03,-0.01 -0.03,-0.01 -0.03,-0.01 -0.03,-0.02 -0.03,-0.01 -0.02,-0.02 -0.02,-0.01 -0.03,-0.02 -0.02,-0.02 -0.02,-0.02 -0.02,-0.02 -0.01,-0.02 -0.02,-0.02 -0.01,-0.02 -0.02,-0.02 -0.01,-0.02 -0.01,-0.02 -0.01,-0.02 -0.01,-0.03 -0.01,-0.02 -0.01,-0.02 -0.01,-0.02 0,-0.02 -0.01,-0.03 0,-0.02 -0.01,-0.02 0,-0.02 0,-0.03 0,-0.02 c 0,-0.29 0.23,-0.38 0.4,-0.38 0.35,0 0.6,0.31 0.6,0.63 0,0.51 -0.57,0.73 -1.07,0.73 -0.73,0 -1.14,-0.72 -1.25,-0.94 -0.27,0.89 -1.01,0.94 -1.23,0.94 -1.21,0 -1.86,-1.56 -1.86,-1.83 0,-0.04 0.05,-0.1 0.13,-0.1 0.1,0 0.12,0.07 0.14,0.11 0.41,1.33 1.21,1.58 1.56,1.58 0.54,0 0.64,-0.5 0.64,-0.79 0,-0.26 -0.07,-0.53 -0.21,-1.11 -0.19,-0.76 -0.24,-0.94 -0.41,-1.63 -0.18,-0.72 -0.53,-1.38 -1.16,-1.38 -0.06,0 -0.36,0 -0.61,0.15 0.43,0.09 0.53,0.45 0.53,0.59 0,0.24 -0.18,0.38 -0.41,0.38 -0.29,0 -0.59,-0.25 -0.59,-0.63 0,-0.5 0.56,-0.73 1.07,-0.73 0.57,0 0.98,0.46 1.23,0.94 0.19,-0.7 0.79,-0.94 1.24,-0.94 1.21,0 1.86,1.57 1.86,1.83 0,0.06 -0.05,0.11 -0.12,0.11 -0.11,0 -0.12,-0.06 -0.16,-0.16 -0.32,-1.05 -1.01,-1.54 -1.55,-1.54 -0.42,0 -0.64,0.31 -0.64,0.8 0,0.26 0.04,0.46 0.23,1.24 0.14,0.56 0.3,1.19 0.42,1.63 0.18,0.72 0.59,1.24 1.14,1.24 0.02,0 0.35,0 0.61,-0.15 z"
   id="path3139"
   inkscape:connector-curvature="0"
   style="fill:#000000;stroke-width:0" />

<path
   d="m 312.38,643.97 -0.01,0.02 0,0.02 0,0.01 0,0.02 0,0.01 -0.01,0.02 0,0.01 -0.01,0.01 0,0.02 -0.01,0.01 -0.01,0.01 -0.01,0.02 0,0.01 -0.01,0.01 -0.01,0.01 -0.01,0.01 -0.01,0.01 -0.01,0.01 -0.02,0.01 -0.01,0.01 -0.01,0 -0.01,0.01 -0.02,0.01 -0.01,0 -0.02,0.01 -0.01,0 -0.02,0.01 -0.01,0 -0.02,0 -0.01,0.01 -0.02,0 -0.02,0 c -0.2,0 -0.44,-0.19 -0.44,-0.43 0,-0.18 0.13,-0.31 0.32,-0.31 0.2,0 0.44,0.19 0.44,0.43 z"
   id="path3141"
   inkscape:connector-curvature="0"
   style="fill:#000000;stroke-width:0" />

<path
   d="m 311.21,641.05 -0.02,-0.05 -0.02,-0.05 -0.01,-0.04 -0.02,-0.04 -0.02,-0.04 -0.01,-0.03 -0.01,-0.03 -0.02,-0.04 -0.01,-0.03 -0.01,-0.03 -0.01,-0.03 -0.01,-0.02 -0.02,-0.06 -0.02,-0.05 -0.02,-0.05 -0.01,-0.03 -0.02,-0.03 -0.01,-0.02 -0.01,-0.03 -0.01,-0.04 -0.01,-0.03 -0.01,-0.03 -0.02,-0.04 -0.01,-0.03 -0.02,-0.04 -0.01,-0.05 -0.02,-0.04 -0.02,-0.05 -0.02,-0.05 c -0.04,-0.12 -0.08,-0.22 -0.08,-0.35 0,-0.39 0.3,-0.68 0.73,-0.68 0.77,0 1.1,1.11 1.1,1.22 0,0.08 -0.07,0.1 -0.12,0.1 -0.1,0 -0.11,-0.05 -0.14,-0.13 -0.18,-0.64 -0.51,-0.96 -0.83,-0.96 -0.09,0 -0.19,0.03 -0.19,0.25 0,0.19 0.06,0.33 0.16,0.58 0.08,0.22 0.16,0.43 0.25,0.64 0.08,0.22 0.16,0.43 0.25,0.65 0.07,0.18 0.16,0.43 0.16,0.57 0,0.39 -0.32,0.68 -0.72,0.68 -0.78,0 -1.11,-1.12 -1.11,-1.22 0,-0.08 0.05,-0.11 0.12,-0.11 0.1,0 0.11,0.05 0.14,0.13 0.22,0.76 0.58,0.97 0.82,0.97 0.11,0 0.2,-0.04 0.2,-0.26 0,-0.08 -0.01,-0.19 -0.09,-0.43 z"
   id="path3143"
   inkscape:connector-curvature="0"
   style="fill:#000000;stroke-width:0" />

<path
   d="m 316.37,636.98 0,0.08 0,0.09 0,0.1 -0.01,0.09 0,0.1 0,0.1 -0.02,0.22 -0.02,0.22 -0.02,0.23 -0.03,0.23 -0.04,0.25 -0.05,0.25 -0.05,0.25 -0.07,0.26 -0.07,0.26 -0.09,0.26 -0.09,0.26 -0.05,0.13 -0.06,0.13 -0.06,0.13 -0.06,0.13 c -0.7,1.44 -1.68,2.22 -1.81,2.22 -0.05,0 -0.11,-0.03 -0.11,-0.1 0,-0.03 0,-0.06 0.2,-0.26 1.19,-1.21 1.87,-3.18 1.87,-5.62 0,-2.32 -0.57,-4.32 -1.95,-5.73 -0.12,-0.1 -0.12,-0.13 -0.12,-0.17 0,-0.07 0.06,-0.09 0.11,-0.09 0.15,0 1.13,0.86 1.72,2.03 0.61,1.22 0.88,2.51 0.88,3.95 z"
   id="path3145"
   inkscape:connector-curvature="0"
   style="fill:#000000;stroke-width:0" />

<path
   d="m 327.9,636.75 0.03,0 0.04,0 0.03,0 0.02,0 0.01,0 0.02,0.01 0.02,0 0.01,0 0.02,0 0.02,0.01 0.01,0 0.02,0 0.01,0.01 0.02,0.01 0.01,0 0.01,0.01 0.02,0.01 0.01,0.01 0.01,0.01 0.01,0.01 0,0 0.01,0.01 0,0.01 0.01,0 0,0.01 0,0.01 0.01,0.01 0,0 0,0.01 0.01,0.01 0,0.01 0,0.01 0,0.01 0,0.01 0.01,0.01 0,0.01 0,0.01 0,0.01 c 0,0.24 -0.23,0.24 -0.4,0.24 h -6.51 c -0.17,0 -0.4,0 -0.4,-0.24 0,-0.24 0.23,-0.24 0.4,-0.24 z"
   id="path3147"
   inkscape:connector-curvature="0"
   style="fill:#000000;stroke-width:0" />

<path
   d="m 335.14,632.66 -0.06,-0.08 -0.06,-0.09 -0.07,-0.08 -0.07,-0.08 -0.04,-0.03 -0.04,-0.04 -0.04,-0.04 -0.04,-0.03 -0.04,-0.03 -0.04,-0.04 -0.04,-0.03 -0.04,-0.03 -0.05,-0.03 -0.04,-0.03 -0.05,-0.02 -0.04,-0.03 -0.05,-0.02 -0.05,-0.02 -0.05,-0.02 -0.04,-0.02 -0.05,-0.01 -0.05,-0.02 -0.05,-0.01 -0.06,-0.01 -0.05,-0.01 -0.05,0 -0.06,-0.01 -0.05,0 c -0.15,0 -0.72,0.02 -0.9,0.58 0.04,-0.02 0.1,-0.02 0.12,-0.02 0.36,0 0.6,0.31 0.6,0.59 0,0.27 -0.23,0.37 -0.41,0.37 -0.19,0 -0.61,-0.14 -0.61,-0.73 0,-0.61 0.52,-1.03 1.2,-1.03 1.19,0 2.4,1.1 2.74,2.43 l 1.17,4.66 c 0.01,0.06 0.03,0.13 0.03,0.2 0,0.18 -0.14,0.3 -0.32,0.3 -0.1,0 -0.36,-0.05 -0.45,-0.4 l -0.89,-3.52 c -0.06,-0.21 -0.06,-0.24 -0.15,-0.37 -0.24,-0.33 -0.63,-0.74 -1.21,-0.74 -0.67,0 -0.73,0.66 -0.73,0.98 0,0.68 0.33,1.6 0.65,2.46 0.13,0.35 0.2,0.52 0.2,0.76 0,0.5 -0.36,0.95 -0.95,0.95 -1.09,0 -1.54,-1.73 -1.54,-1.83 0,-0.04 0.05,-0.1 0.13,-0.1 0.11,0 0.12,0.04 0.17,0.21 0.29,1 0.74,1.48 1.21,1.48 0.11,0 0.31,0 0.31,-0.39 0,-0.31 -0.13,-0.66 -0.31,-1.11 -0.59,-1.57 -0.59,-1.96 -0.59,-2.25 0,-1.13 0.81,-1.4 1.41,-1.4 0.35,0 0.78,0.11 1.2,0.55 l 0.01,-0.01 c -0.18,-0.7 -0.3,-1.17 -0.72,-1.76 z"
   id="path3149"
   inkscape:connector-curvature="0"
   style="fill:#000000;stroke-width:0" />

<path
   d="m 340.38,643.97 -0.01,0.02 0,0.02 0,0.01 0,0.02 0,0.01 -0.01,0.02 0,0.01 -0.01,0.01 0,0.02 -0.01,0.01 -0.01,0.01 -0.01,0.02 0,0.01 -0.01,0.01 -0.01,0.01 -0.01,0.01 -0.01,0.01 -0.01,0.01 -0.02,0.01 -0.01,0.01 -0.01,0 -0.01,0.01 -0.02,0.01 -0.01,0 -0.02,0.01 -0.01,0 -0.02,0.01 -0.01,0 -0.02,0 -0.01,0.01 -0.02,0 -0.02,0 c -0.2,0 -0.44,-0.19 -0.44,-0.43 0,-0.18 0.13,-0.31 0.32,-0.31 0.2,0 0.44,0.19 0.44,0.43 z"
   id="path3151"
   inkscape:connector-curvature="0"
   style="fill:#000000;stroke-width:0" />

<path
   d="m 339.21,641.05 -0.02,-0.05 -0.02,-0.05 -0.01,-0.04 -0.02,-0.04 -0.02,-0.04 -0.01,-0.03 -0.01,-0.03 -0.02,-0.04 -0.01,-0.03 -0.01,-0.03 -0.01,-0.03 -0.01,-0.02 -0.02,-0.06 -0.02,-0.05 -0.02,-0.05 -0.01,-0.03 -0.02,-0.03 -0.01,-0.02 -0.01,-0.03 -0.01,-0.04 -0.01,-0.03 -0.01,-0.03 -0.02,-0.04 -0.01,-0.03 -0.02,-0.04 -0.01,-0.05 -0.02,-0.04 -0.02,-0.05 -0.02,-0.05 c -0.04,-0.12 -0.08,-0.22 -0.08,-0.35 0,-0.39 0.3,-0.68 0.73,-0.68 0.77,0 1.1,1.11 1.1,1.22 0,0.08 -0.07,0.1 -0.12,0.1 -0.1,0 -0.11,-0.05 -0.14,-0.13 -0.18,-0.64 -0.51,-0.96 -0.83,-0.96 -0.09,0 -0.19,0.03 -0.19,0.25 0,0.19 0.06,0.33 0.16,0.58 0.08,0.22 0.16,0.43 0.25,0.64 0.08,0.22 0.16,0.43 0.25,0.65 0.07,0.18 0.16,0.43 0.16,0.57 0,0.39 -0.32,0.68 -0.72,0.68 -0.78,0 -1.11,-1.12 -1.11,-1.22 0,-0.08 0.05,-0.11 0.12,-0.11 0.1,0 0.11,0.05 0.14,0.13 0.22,0.76 0.58,0.97 0.82,0.97 0.11,0 0.2,-0.04 0.2,-0.26 0,-0.08 -0.01,-0.19 -0.09,-0.43 z"
   id="path3153"
   inkscape:connector-curvature="0"
   style="fill:#000000;stroke-width:0" />

<path
   d="m 345.37,636.98 0,0.08 0,0.09 0,0.1 -0.01,0.09 0,0.1 0,0.1 -0.02,0.22 -0.02,0.22 -0.02,0.23 -0.03,0.23 -0.04,0.25 -0.05,0.25 -0.05,0.25 -0.07,0.26 -0.07,0.26 -0.09,0.26 -0.09,0.26 -0.05,0.13 -0.06,0.13 -0.06,0.13 -0.06,0.13 c -0.7,1.44 -1.68,2.22 -1.81,2.22 -0.05,0 -0.11,-0.03 -0.11,-0.1 0,-0.03 0,-0.06 0.2,-0.26 1.19,-1.21 1.87,-3.18 1.87,-5.62 0,-2.32 -0.57,-4.32 -1.95,-5.73 -0.12,-0.1 -0.12,-0.13 -0.12,-0.17 0,-0.07 0.06,-0.09 0.11,-0.09 0.15,0 1.13,0.86 1.72,2.03 0.61,1.22 0.88,2.51 0.88,3.95 z"
   id="path3155"
   inkscape:connector-curvature="0"
   style="fill:#000000;stroke-width:0" />

<path
   d="m 348.25,640.62 0.01,0.02 0.01,0.01 0.02,0.01 0.01,0.02 0.02,0.01 0.02,0.02 0.02,0.01 0.02,0.02 0.01,0.01 0.02,0.02 0.05,0.04 0.04,0.03 0.04,0.04 0.05,0.03 0.04,0.04 0.02,0.01 0.02,0.02 0.02,0.02 0.02,0.01 0.02,0.02 0.02,0.01 0.01,0.02 0.02,0.01 0.02,0.02 0.01,0.01 0.01,0.01 0.02,0.01 c 0.49,0.45 0.96,0.89 0.96,1.62 0,0.95 -0.8,1.56 -1.79,1.56 -0.96,0 -1.59,-0.73 -1.59,-1.43 0,-0.39 0.31,-0.45 0.42,-0.45 0.17,0 0.42,0.12 0.42,0.42 0,0.42 -0.4,0.42 -0.49,0.42 0.23,0.58 0.76,0.77 1.15,0.77 0.74,0 1.12,-0.62 1.12,-1.29 0,-0.83 -0.58,-1.44 -1.52,-2.4 l -1,-1.04 c -0.1,-0.08 -0.1,-0.1 -0.1,-0.3 h 3.15 l 0.23,1.43 h -0.25 c -0.02,-0.16 -0.08,-0.56 -0.18,-0.71 -0.05,-0.07 -0.65,-0.07 -0.78,-0.07 h -1.42 z"
   id="path3157"
   inkscape:connector-curvature="0"
   style="fill:#000000;stroke-width:0" />

<path
   d="m 358.77,636.76 h 3.3 c 0.17,0 0.38,0 0.38,0.22 0,0.22 -0.2,0.22 -0.38,0.22 h -3.3 v 3.3 c 0,0.17 0,0.39 -0.22,0.39 -0.22,0 -0.22,-0.21 -0.22,-0.39 v -3.3 h -3.3 c -0.17,0 -0.39,0 -0.39,-0.21 0,-0.23 0.21,-0.23 0.39,-0.23 h 3.3 v -3.3 c 0,-0.17 0,-0.38 0.21,-0.38 0.23,0 0.23,0.2 0.23,0.38 z"
   id="path3159"
   inkscape:connector-curvature="0"
   style="fill:#000000;stroke-width:0" />

<path
   d="m 368.7,641.45 -0.02,0.04 -0.01,0.04 -0.02,0.03 -0.02,0.04 -0.02,0.03 -0.02,0.04 -0.01,0.03 -0.02,0.03 -0.03,0.03 -0.02,0.03 -0.04,0.05 -0.05,0.05 -0.05,0.05 -0.05,0.04 -0.05,0.04 -0.05,0.04 -0.06,0.03 -0.05,0.03 -0.06,0.03 -0.05,0.02 -0.06,0.02 -0.05,0.02 -0.06,0.02 -0.05,0.01 -0.05,0.01 -0.05,0.01 -0.05,0.01 -0.05,0.01 -0.04,0 -0.04,0.01 -0.04,0 -0.04,0 -0.03,0.01 -0.03,0 -0.03,0 -0.02,0 -0.01,0 c -0.08,0 -0.21,0 -0.21,-0.12 0,-0.1 0.07,-0.11 0.13,-0.12 0.18,-0.03 0.33,-0.05 0.52,-0.4 0.12,-0.22 1.35,-3.8 1.35,-3.82 0,-0.02 -0.01,-0.03 -0.11,-0.12 l -3.11,-3.15 c -0.14,-0.14 -0.24,-0.23 -0.24,-0.39 0,-0.17 0.15,-0.31 0.34,-0.31 0.05,0 0.18,0.02 0.25,0.1 0.19,0.18 1.9,2.26 2.99,3.56 0.31,-0.94 0.69,-2.03 1.06,-3.04 0.06,-0.18 0.12,-0.34 0.29,-0.5 0.12,-0.11 0.14,-0.11 0.48,-0.11 h 0.23 c 0.04,0 0.12,0 0.12,0.1 0,0.04 -0.01,0.05 -0.05,0.1 -0.11,0.14 -0.2,0.35 -0.24,0.49 z"
   id="path3161"
   inkscape:connector-curvature="0"
   style="fill:#000000;stroke-width:0" />

<path
   d="m 378.12,636.74 0.32,-0.24 0.33,-0.23 0.32,-0.24 0.17,-0.12 0.16,-0.12 c 0.15,-0.1 0.36,-0.26 0.45,-0.26 0.15,0 0.32,0.14 0.32,0.33 0,0.1 -0.05,0.22 -0.22,0.3 l -1.73,0.82 1.7,0.81 c 0.11,0.05 0.25,0.12 0.25,0.31 0,0.19 -0.17,0.33 -0.32,0.33 -0.05,0 -0.11,-0.01 -0.25,-0.1 l -1.5,-1.11 0.17,1.91 c 0.01,0.15 0,0.43 -0.3,0.43 -0.19,0 -0.35,-0.16 -0.31,-0.31 v -0.13 l 0.16,-1.9 -1.5,1.1 c -0.16,0.1 -0.16,0.11 -0.24,0.11 -0.15,0 -0.32,-0.14 -0.32,-0.33 0,-0.19 0.14,-0.26 0.25,-0.31 l 1.68,-0.8 -1.68,-0.81 c -0.11,-0.05 -0.25,-0.13 -0.25,-0.32 0,-0.19 0.17,-0.33 0.32,-0.33 0.05,0 0.11,0.01 0.24,0.11 l 1.5,1.11 -0.16,-1.96 v -0.06 c -0.04,-0.18 0.13,-0.32 0.3,-0.32 0.32,0 0.32,0.27 0.31,0.44 z"
   id="path3163"
   inkscape:connector-curvature="0"
   style="fill:#000000;stroke-width:0" />

<path
   d="m 389.59,650.31 0.01,0.01 0,0.01 0,0.02 0.01,0.01 0,0.02 0,0.01 0.01,0.02 0,0.02 0,0.01 0.01,0.02 0,0.02 0.01,0.02 0.01,0.04 0.01,0.04 0.01,0.04 0.01,0.04 0,0.02 0.01,0.01 0,0.02 0.01,0.02 0,0.02 0,0.01 0.01,0.02 0,0.02 0,0.01 0.01,0.01 0,0.02 0,0.01 c 0.03,0.08 0.07,0.27 0.09,0.35 0.01,0.04 0.28,0.56 0.63,0.82 0.27,0.21 0.53,0.27 0.76,0.27 0.29,0 0.45,-0.17 0.45,-0.54 0,-0.19 -0.05,-0.37 -0.13,-0.73 -0.06,-0.21 -0.2,-0.75 -0.24,-0.96 l -0.12,-0.48 c -0.04,-0.13 -0.1,-0.37 -0.1,-0.41 0,-0.19 0.15,-0.25 0.26,-0.25 0.14,0 0.26,0.1 0.31,0.19 0.03,0.05 0.09,0.32 0.13,0.49 l 0.19,0.71 c 0.02,0.12 0.1,0.42 0.12,0.54 0.11,0.43 0.11,0.44 0.3,0.7 0.26,0.39 0.63,0.74 1.17,0.74 0.28,0 0.45,-0.17 0.45,-0.54 0,-0.44 -0.33,-1.35 -0.48,-1.74 -0.08,-0.21 -0.11,-0.26 -0.11,-0.41 0,-0.45 0.38,-0.68 0.72,-0.68 0.78,0 1.11,1.11 1.11,1.22 0,0.08 -0.07,0.1 -0.12,0.1 -0.09,0 -0.11,-0.05 -0.14,-0.13 -0.19,-0.66 -0.52,-0.96 -0.83,-0.96 -0.12,0 -0.19,0.07 -0.19,0.26 0,0.18 0.07,0.36 0.15,0.56 0.11,0.3 0.47,1.21 0.47,1.66 0,0.6 -0.42,0.89 -0.99,0.89 -0.55,0 -1.01,-0.29 -1.37,-0.79 -0.06,0.64 -0.57,0.79 -0.98,0.79 -0.37,0 -0.85,-0.13 -1.29,-0.71 -0.06,0.48 -0.44,0.71 -0.82,0.71 -0.28,0 -0.48,-0.17 -0.61,-0.44 -0.19,-0.38 -0.27,-0.77 -0.27,-0.78 0,-0.08 0.05,-0.11 0.12,-0.11 0.1,0 0.11,0.03 0.17,0.24 0.09,0.39 0.24,0.86 0.57,0.86 0.21,0 0.26,-0.2 0.26,-0.37 0,-0.15 -0.04,-0.3 -0.11,-0.56 -0.02,-0.06 -0.13,-0.54 -0.17,-0.64 -0.12,-0.53 -0.18,-0.74 -0.29,-1.2 -0.03,-0.12 -0.08,-0.32 -0.08,-0.35 0,-0.19 0.15,-0.25 0.25,-0.25 0.15,0 0.27,0.1 0.32,0.19 0.03,0.05 0.09,0.32 0.13,0.49 z"
   id="path3165"
   inkscape:connector-curvature="0"
   style="fill:#000000;stroke-width:0" />

<path
   d="m 398.14,628.26 1.44,3.83 h -0.3 c -0.46,-1.25 -1.73,-2.06 -3.1,-2.42 -0.26,-0.06 -1.43,-0.37 -3.72,-0.37 h -7.21 l 6.08,7.14 c 0.09,0.09 0.11,0.13 0.11,0.19 0,0.03 0,0.06 -0.08,0.18 l -5.57,7.62 h 6.55 c 1.6,0 2.69,-0.17 2.79,-0.2 0.65,-0.09 1.69,-0.29 2.64,-0.89 0.29,-0.19 1.11,-0.73 1.51,-1.7 h 0.3 L 398.14,645 H 384 c -0.27,0 -0.28,-0.01 -0.32,-0.08 -0.01,-0.04 -0.01,-0.27 -0.01,-0.4 l 6.32,-8.65 -6.19,-7.26 c -0.12,-0.14 -0.12,-0.2 -0.12,-0.21 0,-0.14 0.11,-0.14 0.32,-0.14 z"
   id="path3167"
   inkscape:connector-curvature="0"
   style="fill:#000000;stroke-width:0" />

<path
   d="m 387.38,624.97 -0.01,0.02 0,0.02 0,0.01 0,0.02 0,0.01 -0.01,0.02 0,0.01 -0.01,0.01 0,0.02 -0.01,0.01 -0.01,0.01 -0.01,0.02 0,0.01 -0.01,0.01 -0.01,0.01 -0.01,0.01 -0.01,0.01 -0.01,0.01 -0.02,0.01 -0.01,0.01 -0.01,0 -0.01,0.01 -0.02,0.01 -0.01,0 -0.02,0.01 -0.01,0 -0.02,0.01 -0.01,0 -0.02,0 -0.01,0.01 -0.02,0 -0.02,0 c -0.2,0 -0.44,-0.19 -0.44,-0.43 0,-0.18 0.13,-0.31 0.32,-0.31 0.2,0 0.44,0.19 0.44,0.43 z"
   id="path3169"
   inkscape:connector-curvature="0"
   style="fill:#000000;stroke-width:0" />

<path
   d="m 386.21,622.05 -0.02,-0.05 -0.02,-0.05 -0.01,-0.04 -0.02,-0.04 -0.02,-0.04 -0.01,-0.03 -0.01,-0.03 -0.02,-0.04 -0.01,-0.03 -0.01,-0.03 -0.01,-0.03 -0.01,-0.02 -0.02,-0.06 -0.02,-0.05 -0.02,-0.05 -0.01,-0.03 -0.02,-0.03 -0.01,-0.02 -0.01,-0.03 -0.01,-0.04 -0.01,-0.03 -0.01,-0.03 -0.02,-0.04 -0.01,-0.03 -0.02,-0.04 -0.01,-0.05 -0.02,-0.04 -0.02,-0.05 -0.02,-0.05 c -0.04,-0.12 -0.08,-0.22 -0.08,-0.35 0,-0.39 0.3,-0.68 0.73,-0.68 0.77,0 1.1,1.11 1.1,1.22 0,0.08 -0.07,0.1 -0.12,0.1 -0.1,0 -0.11,-0.05 -0.14,-0.13 -0.18,-0.64 -0.51,-0.96 -0.83,-0.96 -0.09,0 -0.19,0.03 -0.19,0.25 0,0.19 0.06,0.33 0.16,0.58 0.08,0.22 0.16,0.43 0.25,0.64 0.08,0.22 0.16,0.43 0.25,0.65 0.07,0.18 0.16,0.43 0.16,0.57 0,0.39 -0.32,0.68 -0.72,0.68 -0.78,0 -1.11,-1.12 -1.11,-1.22 0,-0.08 0.05,-0.11 0.12,-0.11 0.1,0 0.11,0.05 0.14,0.13 0.22,0.76 0.58,0.97 0.82,0.97 0.11,0 0.2,-0.04 0.2,-0.26 0,-0.08 -0.01,-0.19 -0.09,-0.43 z"
   id="path3171"
   inkscape:connector-curvature="0"
   style="fill:#000000;stroke-width:0" />

<path
   d="m 393.82,622.65 0.03,0 0.02,0 0.02,0 0.02,0 0.01,0 0.01,0.01 0.01,0 0.01,0 0.02,0 0.01,0 0.01,0.01 0.01,0 0.01,0 0.01,0.01 0.01,0 0.01,0.01 0.01,0.01 0.01,0 0,0.01 0.01,0.01 0,0 0.01,0.01 0,0 0,0.01 0.01,0.01 0,0 0,0.01 0,0 0.01,0.01 0,0.01 0,0 0,0.01 0,0.01 0,0 0,0.01 0,0.01 0,0.01 0.01,0.01 c 0,0.18 -0.2,0.18 -0.32,0.18 h -5.01 c -0.12,0 -0.31,0 -0.31,-0.18 0,-0.19 0.16,-0.19 0.28,-0.19 z"
   id="path3173"
   inkscape:connector-curvature="0"
   style="fill:#000000;stroke-width:0" />

<path
   d="m 393.79,620.97 0.01,0 0.02,0 0.01,0 0.01,0 0.03,0 0.02,0 0.02,0 0.01,0 0.01,0 0.01,0 0.02,0.01 0.01,0 0.01,0 0.01,0.01 0.02,0 0.01,0.01 0.01,0 0.01,0.01 0.01,0.01 0.01,0 0.01,0.01 0,0.01 0,0 0.01,0.01 0,0 0,0.01 0.01,0 0,0.01 0,0 0,0.01 0.01,0.01 0,0 0,0.01 0,0.01 0,0.01 0,0 0,0.01 0,0.01 0.01,0.01 c 0,0.18 -0.16,0.18 -0.29,0.18 h -5.07 c -0.12,0 -0.28,0 -0.28,-0.18 0,-0.18 0.19,-0.18 0.31,-0.18 z"
   id="path3175"
   inkscape:connector-curvature="0"
   style="fill:#000000;stroke-width:0" />

<path
   d="m 397.5,625.08 0,0.01 0,0.01 0,0.01 0,0.01 0,0 0,0.01 0,0.01 0,0.01 0,0.01 0,0 0,0.01 0,0.01 0,0.01 0,0 0,0.01 0,0 0,0.01 0,0 -0.01,0.01 0,0.01 0,0 0,0.01 -0.01,0.01 0,0.01 -0.01,0 0,0.01 -0.01,0.01 0,0 -0.01,0 -0.01,0.01 -0.01,0 -0.01,0 -0.01,0 -0.01,0.01 -0.01,0 0,0 -0.01,0 -0.01,0 0,0 -0.01,0 -0.01,0 -0.01,0 0,0 -0.01,0 -0.01,0 -0.01,0 -0.01,0 -0.01,0 -0.01,0 -0.01,0 c -0.32,-0.32 -0.75,-0.51 -1.5,-0.51 v -0.26 c 0.21,0 0.64,0 1.1,0.21 v -4.09 c 0,-0.29 -0.02,-0.39 -0.78,-0.39 h -0.28 V 620 c 0.33,0.02 1.01,0.02 1.37,0.02 0.36,0 1.05,0 1.38,-0.02 v 0.26 h -0.27 c -0.76,0 -0.79,0.1 -0.79,0.39 z"
   id="path3177"
   inkscape:connector-curvature="0"
   style="fill:#000000;stroke-width:0" />

<path
   d="m 408.3,640.01 0,0.12 -0.01,0.11 0,0.11 -0.01,0.12 -0.01,0.11 -0.01,0.11 -0.02,0.11 -0.02,0.1 -0.02,0.11 -0.02,0.1 -0.03,0.1 -0.03,0.1 -0.03,0.1 -0.03,0.09 -0.04,0.09 -0.04,0.08 -0.04,0.09 -0.04,0.07 -0.05,0.08 -0.05,0.07 -0.06,0.06 -0.06,0.07 -0.06,0.05 -0.06,0.05 -0.07,0.05 -0.07,0.04 -0.07,0.04 -0.08,0.02 -0.08,0.03 -0.08,0.01 -0.09,0.01 -0.09,0.01 -0.01,-0.24 c 0.4,0 0.66,-0.34 0.66,-1.48 0,-0.43 -0.04,-1.03 -0.38,-2.37 h -2.53 c 0.18,0.7 0.44,1.71 0.91,2.56 0.4,0.71 0.81,1.29 1.34,1.29 l 0.01,0.24 c -1.67,0 -3.45,-3.51 -3.45,-6.14 0,-0.55 0.12,-2.4 1.37,-2.4 l 0.01,0.24 c -0.36,0 -0.66,0.29 -0.66,1.47 0,0.78 0.19,1.59 0.38,2.38 h 2.53 c -0.3,-1.17 -0.55,-1.93 -0.98,-2.68 -0.34,-0.61 -0.76,-1.17 -1.27,-1.17 l -0.01,-0.24 c 1.63,0 3.45,3.42 3.45,6.13 z"
   id="path3179"
   inkscape:connector-curvature="0"
   style="fill:#000000;stroke-width:0" />

<path
   d="m 410.25,640.62 0.01,0.02 0.01,0.01 0.02,0.01 0.01,0.02 0.02,0.01 0.02,0.02 0.02,0.01 0.02,0.02 0.01,0.01 0.02,0.02 0.05,0.04 0.04,0.03 0.04,0.04 0.05,0.03 0.04,0.04 0.02,0.01 0.02,0.02 0.02,0.02 0.02,0.01 0.02,0.02 0.02,0.01 0.01,0.02 0.02,0.01 0.02,0.02 0.01,0.01 0.01,0.01 0.02,0.01 c 0.49,0.45 0.96,0.89 0.96,1.62 0,0.95 -0.8,1.56 -1.79,1.56 -0.96,0 -1.59,-0.73 -1.59,-1.43 0,-0.39 0.31,-0.45 0.42,-0.45 0.17,0 0.42,0.12 0.42,0.42 0,0.42 -0.4,0.42 -0.49,0.42 0.23,0.58 0.76,0.77 1.15,0.77 0.74,0 1.12,-0.62 1.12,-1.29 0,-0.83 -0.58,-1.44 -1.52,-2.4 l -1,-1.04 c -0.1,-0.08 -0.1,-0.1 -0.1,-0.3 h 3.15 l 0.23,1.43 h -0.25 c -0.02,-0.16 -0.08,-0.56 -0.18,-0.71 -0.05,-0.07 -0.65,-0.07 -0.78,-0.07 h -1.42 z"
   id="path3181"
   inkscape:connector-curvature="0"
   style="fill:#000000;stroke-width:0" />

<path
   d="m 411.29,635.97 0,0.02 0,0.01 0,0.02 0,0.01 -0.01,0.01 0,0.02 0,0.01 -0.01,0.01 0,0.02 -0.01,0.01 -0.01,0.01 -0.01,0.02 0,0.01 -0.01,0.01 -0.01,0.01 -0.01,0.01 -0.01,0.01 -0.01,0.01 -0.01,0.01 -0.02,0.01 -0.01,0.01 -0.01,0.01 -0.02,0 -0.01,0.01 -0.01,0.01 -0.02,0 -0.02,0.01 -0.01,0 -0.02,0 -0.01,0.01 -0.02,0 -0.02,0 c -0.24,0 -0.44,-0.23 -0.44,-0.43 0,-0.15 0.11,-0.31 0.3,-0.31 0.25,0 0.45,0.23 0.45,0.43 z"
   id="path3183"
   inkscape:connector-curvature="0"
   style="fill:#000000;stroke-width:0" />

<path
   d="m 409.62,630.6 -0.01,-0.04 -0.01,-0.05 -0.01,-0.04 -0.02,-0.05 -0.02,-0.05 -0.02,-0.04 -0.02,-0.05 -0.02,-0.04 -0.02,-0.04 -0.03,-0.05 -0.03,-0.04 -0.02,-0.04 -0.03,-0.04 -0.03,-0.04 -0.03,-0.04 -0.03,-0.03 -0.04,-0.04 -0.03,-0.03 -0.04,-0.03 -0.03,-0.03 -0.04,-0.03 -0.04,-0.03 -0.04,-0.02 -0.04,-0.02 -0.04,-0.02 -0.04,-0.02 -0.04,-0.02 -0.04,-0.01 -0.05,-0.01 -0.04,-0.01 -0.05,0 -0.04,0 c -0.13,0 -0.25,0.03 -0.26,0.04 0.24,0.12 0.27,0.33 0.27,0.4 0,0.19 -0.14,0.3 -0.3,0.3 -0.23,0 -0.45,-0.2 -0.45,-0.46 0,-0.31 0.29,-0.5 0.75,-0.5 0.48,0 1.36,0.3 1.6,1.25 l 0.72,2.86 c 0.02,0.09 0.04,0.16 0.04,0.28 0,0.43 -0.36,0.75 -0.82,0.75 -0.84,0 -1.34,-1.12 -1.34,-1.22 0,-0.08 0.06,-0.11 0.12,-0.11 0.09,0 0.1,0.03 0.16,0.15 0.24,0.55 0.64,0.95 1.04,0.95 0.17,0 0.26,-0.11 0.26,-0.37 0,-0.12 -0.02,-0.22 -0.04,-0.34 z"
   id="path3185"
   inkscape:connector-curvature="0"
   style="fill:#000000;stroke-width:0" />

<polygon
   points="414.85,642.97 413.25,642.97 413.25,642.52 414.41,642.52 414.41,631.45 413.25,631.45 413.25,631.01 414.85,631.01 "
   id="polygon3187"
   style="fill:#000000;stroke-width:0" />

</g></svg>
